<svg>
<text class="tooltip" style="display: none; fill: rgb(137, 163, 92); z-index: 1000000; font-family: sans-serif; font-size: 13px; font-weight: bold;"></text>
<g class="graph">
<defs>
<marker id="red" viewBox="0 -5 10 10" refX="10" refY="-0.8" markerWidth="7.5" markerHeight="7.5" orient="auto"><path d="M0,-5L10,0L0,5 Z"></path></marker>
<marker id="green" viewBox="0 -5 10 10" refX="10" refY="-0.8" markerWidth="7.5" markerHeight="7.5" orient="auto"><path d="M0,-5L10,0L0,5 Z"></path></marker>
<marker id="black" viewBox="0 -5 10 10" refX="10" refY="-0.8" markerWidth="7.5" markerHeight="7.5" orient="auto"><path d="M0,-5L10,0L0,5 Z"></path></marker>
<marker id="blue" viewBox="0 -5 10 10" refX="10" refY="-0.8" markerWidth="7.5" markerHeight="7.5" orient="auto"><path d="M0,-5L10,0L0,5 Z"></path></marker>
</defs>
<g class="node" transform="translate(825.227658065594,27.459061443757115)">
<circle class="graphcircle" r="10" id="Slice-1"></circle><text class="textClass" dx="5" dy="15">Slice-1</text></g><g class="node" transform="translate(674.9527289962466,36.80752777939253)"><circle class="graphcircle" r="10" id="VB"></circle><text class="textClass" dx="5" dy="15">VB</text></g><path id="Slice-1-VB" class="link strokegreen" marker-end="url(#strokegreen)" d="M815.2469519369336,28.079952072869276A150.565428069082,150.565428069082 0 0,0 684.9334351249071,36.18663715028037"></path><text style="pointer-events: none;" class="linklabel" d="M815.2469519369336,28.079952072869276A150.565428069082,150.565428069082 0 0,0 684.9334351249071,36.18663715028037" transform="rotate(-3.5597309196874676 747.6015625 -11.287212371826172)" x="726.6066310144716" y="-7.789529903067063">has_pos</text><g class="node" transform="translate(754.404240561508,159.54216357378706)"><circle class="graphcircle" r="10" id="baguette-3"></circle><text class="textClass" dx="5" dy="15">baguette-3</text></g><g class="node" transform="translate(610.5166355229919,197.90861130866733)"><circle class="graphcircle" r="10" id="NN"></circle><text class="textClass" dx="5" dy="15">NN</text></g><path id="baguette-3-NN" class="link strokegreen" marker-end="url(#strokegreen)" d="M744.7418313114144,162.11856561611384A148.91483201989416,148.91483201989416 0 0,0 620.1790447730855,195.33220926634056"></path><text style="pointer-events: none;" class="linklabel" d="M744.7418313114144,162.11856561611384A148.91483201989416,148.91483201989416 0 0,0 620.1790447730855,195.33220926634056" transform="rotate(-14.930086160385926 672.14306640625 136.58599853515625)" x="651.1548298729429" y="140.0757504408528">has_pos</text><g class="node" transform="translate(912.6738156043474,149.41846671450037)"><circle class="graphcircle" r="10" id="ROOT-0"></circle><text class="textClass" dx="5" dy="15">ROOT-0</text></g><path id="ROOT-0-Slice-1" class="link strokegreen" marker-end="url(#strokegreen)" d="M906.8467809690083,141.29161816425915A150.06974046184618,150.06974046184618 0 0,0 831.0546927009332,35.58590999399834"></path><text style="pointer-events: none;" class="linklabel" d="M906.8467809690083,141.29161816425915A150.06974046184618,150.06974046184618 0 0,0 831.0546927009332,35.58590999399834" transform="rotate(54.35908461881601 901.4566040039062 61.62476348876953)" x="889.4581310359356" y="65.13062553777218">root</text><g class="node" transform="translate(724.9337505714449,306.32720581247276)"><circle class="graphcircle" r="10" id="the-2"></circle><text class="textClass" dx="5" dy="15">the-2</text></g><g class="node" transform="translate(869.747577125989,276.91262124567857)"><circle class="graphcircle" r="10" id="DT"></circle><text class="textClass" dx="5" dy="15">DT</text></g><path id="the-2-DT" class="link strokegreen" marker-end="url(#strokegreen)" d="M734.733633324227,304.33665361980763A147.77097870220211,147.77097870220211 0 0,0 859.9476943732069,278.9031734383437"></path><text style="pointer-events: none;" class="linklabel" d="M734.733633324227,304.33665361980763A147.77097870220211,147.77097870220211 0 0,0 859.9476943732069,278.9031734383437" transform="rotate(-191.4817162717369 805.3153686523438 327.3139343261719)" x="784.3028726193776" y="330.8194445402041">has_pos</text><path id="baguette-3-the-2" class="link strokegreen" marker-end="url(#strokegreen)" d="M752.435791409997,169.3465099537308A149.7142558518298,149.7142558518298 0 0,0 726.9021997229559,296.522859432529"></path><text style="pointer-events: none;" class="linklabel" d="M752.435791409997,169.3465099537308A149.7142558518298,149.7142558518298 0 0,0 726.9021997229559,296.522859432529" transform="rotate(-78.64748140569843 700.4506225585938 221.5682373046875)" x="691.4516100467016" y="225.060888087086">det</text><path id="Slice-1-baguette-3" class="link strokegreen" marker-end="url(#strokegreen)" d="M820.5020944717346,36.272065966642074A149.87295398186424,149.87295398186424 0 0,0 759.1298041553674,150.7291590509021"></path><text style="pointer-events: none;" class="linklabel" d="M820.5020944717346,36.272065966642074A149.87295398186424,149.87295398186424 0 0,0 759.1298041553674,150.7291590509021" transform="rotate(-61.79963628560553 754.5570068359375 71.09868621826172)" x="742.5639312220112" y="74.59835813333456">dobj</text>
</g>
</svg>
