<svg width="100%" height="100%"><g><defs><marker id="dashedred" viewBox="0 -5 10 10" refX="10" refY="-0.8" markerWidth="7.5" markerHeight="7.5" orient="auto"><path d="M0,-5L10,0L0,5 Z"></path></marker><marker id="strokegreen" viewBox="0 -5 10 10" refX="10" refY="-0.8" markerWidth="7.5" markerHeight="7.5" orient="auto"><path d="M0,-5L10,0L0,5 Z"></path></marker><marker id="dashed" viewBox="0 -5 10 10" refX="10" refY="-0.8" markerWidth="7.5" markerHeight="7.5" orient="auto"><path d="M0,-5L10,0L0,5 Z"></path></marker><marker id="strokeblue" viewBox="0 -5 10 10" refX="10" refY="-0.8" markerWidth="7.5" markerHeight="7.5" orient="auto"><path d="M0,-5L10,0L0,5 Z"></path></marker><marker id="arrowhead" viewBox="0 -5 10 10" refX="10" refY="-0.8" markerWidth="7.5" markerHeight="7.5" orient="auto"><path d="M0,-5L10,0L0,5 Z"></path></marker><marker id="default" viewBox="0 -5 10 10" refX="10" refY="-0.8" markerWidth="7.5" markerHeight="7.5" orient="auto"><path d="M0,-5L10,0L0,5 Z"></path></marker></defs><g class="node" transform="translate(906.8905465715897,410.76383263154537)"><circle r="10" id="Slice-1"></circle><text class="textClass" dx="5" dy="15">Slice-1</text></g><g class="node" transform="translate(1022.4991001944198,302.4380330405224)"><circle r="10" id="VB"></circle><text class="textClass" dx="5" dy="15">VB</text></g><path id="Slice-1-VB" class="link strokegreen" marker-end="url(#strokegreen)" d="M914.1877204412264,403.92634380038146A158.42921614335305,158.42921614335305 0 0,0 1015.2019263247831,309.2755218716863"></path><text style="pointer-events: none;" class="label" d="M914.1877204412264,403.92634380038146A158.42921614335305,158.42921614335305 0 0,0 1015.2019263247831,309.2755218716863" transform="rotate(-223.13729316214787 992.0467529296875 379.2874450683594)" x="964.0447787076604" y="385.7896283145807">has_pos</text><g class="node" transform="translate(805.4135456649366,283.6490168410271)"><circle r="10" id="baguette-3"></circle><text class="textClass" dx="5" dy="15">baguette-3</text></g><g class="node" transform="translate(918.8969735906117,180.39344015507703)"><circle r="10" id="NN"></circle><text class="textClass" dx="5" dy="15">NN</text></g><path id="baguette-3-NN" class="link strokegreen" marker-end="url(#strokegreen)" d="M812.810064172581,276.9191198161036A153.42816733087182,153.42816733087182 0 0,0 911.5004550829673,187.12333718000053"></path><text style="pointer-events: none;" class="label" d="M812.810064172581,276.9191198161036A153.42816733087182,153.42816733087182 0 0,0 911.5004550829673,187.12333718000053" transform="rotate(-222.298232961411 889.0723266601562 255.10821533203125)" x="861.0748477274681" y="261.60730252862953">has_pos</text><g class="node" transform="translate(1056.8647226438197,426.1939233018275)"><circle r="10" id="ROOT-0"></circle><text class="textClass" dx="5" dy="15">ROOT-0</text></g><path id="ROOT-0-Slice-1" class="link strokegreen" marker-end="url(#strokegreen)" d="M1046.9172327319784,425.17047596375045A150.76584887379965,150.76584887379965 0 0,0 916.8380364834309,411.78727996962243"></path><text style="pointer-events: none;" class="label" d="M1046.9172327319784,425.17047596375045A150.76584887379965,150.76584887379965 0 0,0 916.8380364834309,411.78727996962243" transform="rotate(5.8742067435455425 985.9732666015625 372.18707275390625)" x="973.4714239600131" y="378.68891831932154">root</text><g class="node" transform="translate(788.8040691716168,431.1264082227942)"><circle r="10" id="the-2"></circle><text class="textClass" dx="5" dy="15">the-2</text></g><g class="node" transform="translate(893.4869121866898,315.79009128684845)"><circle r="10" id="DT"></circle><text class="textClass" dx="5" dy="15">DT</text></g><path id="the-2-DT" class="link strokegreen" marker-end="url(#strokegreen)" d="M795.5248771228647,423.721630003128A155.75931312787478,155.75931312787478 0 0,0 886.7661042354418,323.1948695065147"></path><text style="pointer-events: none;" class="label" d="M795.5248771228647,423.721630003128A155.75931312787478,155.75931312787478 0 0,0 886.7661042354418,323.1948695065147" transform="rotate(-227.7721345888697 870.7667846679688 393.84326171875)" x="842.7646035578181" y="400.3414815598129">has_pos</text><path id="baguette-3-the-2" class="link strokegreen" marker-end="url(#strokegreen)" d="M804.2943822797141,293.5861931661799A148.40975600732273,148.40975600732273 0 0,0 789.9232325568393,421.18923189764143"></path><text style="pointer-events: none;" class="label" d="M804.2943822797141,293.5861931661799A148.40975600732273,148.40975600732273 0 0,0 789.9232325568393,421.18923189764143" transform="rotate(-83.57420409604966 757.3606567382812 346.41668701171875)" x="747.3601021176655" y="352.91105899102075">det</text><path id="Slice-1-baguette-3" class="link strokegreen" marker-end="url(#strokegreen)" d="M900.6516538507194,402.94870514586273A162.6522613014226,162.6522613014226 0 0,0 811.6524383858068,291.46414432670974"></path><text style="pointer-events: none;" class="label" d="M900.6516538507194,402.94870514586273A162.6522613014226,162.6522613014226 0 0,0 811.6524383858068,291.46414432670974" transform="rotate(51.39929066344024 887.4121704101562 315.7520446777344)" x="873.9125560609937" y="322.2508538528052">dobj</text></g></svg>