<?xml version="1.0" encoding="UTF-8"?><svg xmlns="http://www.w3.org/2000/svg" xmlns:xlink="http://www.w3.org/1999/xlink" fill-opacity="1" color-rendering="auto" color-interpolation="auto" text-rendering="auto" stroke="black" stroke-linecap="square" width="100%" height="100%" viewBox="0 0 444 788" stroke-miterlimit="10" shape-rendering="auto" stroke-opacity="1" fill="black" stroke-dasharray="none" font-weight="normal" stroke-width="1" font-family="'Dialog'" font-style="normal" stroke-linejoin="miter" font-size="12" stroke-dashoffset="0" image-rendering="auto">
  <!--Generated by ySVG 2.5-->
  <defs id="genericDefs"/>
  <g>
    <defs id="defs1">
      <clipPath clipPathUnits="userSpaceOnUse" id="clipPath1">
        <path d="M0 0 L444 0 L444 788 L0 788 L0 0 Z"/>
      </clipPath>
      <clipPath clipPathUnits="userSpaceOnUse" id="clipPath2">
        <path d="M573 -98 L1017 -98 L1017 690 L573 690 L573 -98 Z"/>
      </clipPath>
    </defs>
    <g fill="none" fill-opacity=".5" text-rendering="geometricPrecision" shape-rendering="geometricPrecision" transform="translate(-573,98)" stroke="white">
      <rect x="573" width="444" height="788" y="-98" clip-path="url(#clipPath2)" stroke="none"/>
    </g>
    <g fill="white" text-rendering="geometricPrecision" shape-rendering="geometricPrecision" transform="matrix(1,0,0,1,-573,98)" stroke="white">
      <ellipse rx="40" ry="20" clip-path="url(#clipPath2)" cx="768" cy="-62.4" stroke="none"/>
    </g>
    <g text-rendering="geometricPrecision" stroke-miterlimit="1.45" shape-rendering="geometricPrecision" transform="matrix(1,0,0,1,-573,98)" stroke-linecap="butt">
      <ellipse id="init" rx="40" fill="none" ry="20" clip-path="url(#clipPath2)" cx="768" cy="-62.4"/>
      <text x="735.8877" xml:space="preserve" y="-58.2457" clip-path="url(#clipPath2)" font-family="sans-serif" stroke="none">Instruction</text>
    </g>
    <g fill="white" text-rendering="geometricPrecision" shape-rendering="geometricPrecision" transform="matrix(1,0,0,1,-573,98)" stroke="white">
      <path d="M728 -20.4 L808 -20.4 L808 19.6 L728 19.6 Z" stroke="none" clip-path="url(#clipPath2)"/>
    </g>
    <g text-rendering="geometricPrecision" stroke-miterlimit="1.45" shape-rendering="geometricPrecision" transform="matrix(1,0,0,1,-573,98)" stroke-linecap="butt">
      <path id="nl_parsing" fill="none" d="M728 -20.4 L808 -20.4 L808 19.6 L728 19.6 Z" clip-path="url(#clipPath2)"/>
      <text x="745.834" xml:space="preserve" y="3.7543" clip-path="url(#clipPath2)" font-family="sans-serif" stroke="none">Parsing</text>
    </g>
    <g fill="white" text-rendering="geometricPrecision" shape-rendering="geometricPrecision" transform="matrix(1,0,0,1,-573,98)" stroke="white">
      <path d="M728 41.6 L808 41.6 L808 81.6 L728 81.6 Z" stroke="none" clip-path="url(#clipPath2)"/>
    </g>
    <g text-rendering="geometricPrecision" stroke-miterlimit="1.45" shape-rendering="geometricPrecision" transform="matrix(1,0,0,1,-573,98)" stroke-linecap="butt">
      <path id="ac_recognition" fill="none" d="M728 41.6 L808 41.6 L808 81.6 L728 81.6 Z" clip-path="url(#clipPath2)"/>
      <text x="734.0684" xml:space="preserve" y="58.7699" clip-path="url(#clipPath2)" font-family="sans-serif" stroke="none">Actioncore </text>
      <text x="739.6729" xml:space="preserve" y="72.7387" clip-path="url(#clipPath2)" font-family="sans-serif" stroke="none">Inference</text>
    </g>
    <g fill="white" text-rendering="geometricPrecision" shape-rendering="geometricPrecision" transform="matrix(1,0,0,1,-573,98)" stroke="white">
      <path d="M728.32 172 L808.32 172 L808.32 212 L728.32 212 Z" stroke="none" clip-path="url(#clipPath2)"/>
    </g>
    <g text-rendering="geometricPrecision" stroke-miterlimit="1.45" shape-rendering="geometricPrecision" transform="matrix(1,0,0,1,-573,98)" stroke-linecap="butt">
      <path id="senses_and_roles" fill="none" d="M728.32 172 L808.32 172 L808.32 212 L728.32 212 Z" clip-path="url(#clipPath2)"/>
      <text x="734.3181" xml:space="preserve" y="189.1699" clip-path="url(#clipPath2)" font-family="sans-serif" stroke="none">Action Role</text>
      <text x="739.9929" xml:space="preserve" y="203.1387" clip-path="url(#clipPath2)" font-family="sans-serif" stroke="none">Inference</text>
    </g>
    <g fill="white" text-rendering="geometricPrecision" shape-rendering="geometricPrecision" transform="matrix(1,0,0,1,-573,98)" stroke="white">
      <path d="M768 506.2754 L837.76 548.0355 L768 589.7954 L698.24 548.0355 Z" stroke="none" clip-path="url(#clipPath2)"/>
    </g>
    <g text-rendering="geometricPrecision" stroke-miterlimit="1.45" shape-rendering="geometricPrecision" transform="matrix(1,0,0,1,-573,98)" stroke-linecap="butt">
      <path id="executable" fill="none" d="M768 506.2754 L837.76 548.0355 L768 589.7954 L698.24 548.0355 Z" clip-path="url(#clipPath2)"/>
      <text x="716.8125" xml:space="preserve" y="552.1898" clip-path="url(#clipPath2)" font-family="sans-serif" stroke="none">Executable Plan?</text>
    </g>
    <g fill="white" text-rendering="geometricPrecision" shape-rendering="geometricPrecision" transform="matrix(1,0,0,1,-573,98)" stroke="white">
      <rect x="867.76" y="529.3154" clip-path="url(#clipPath2)" width="133.6" rx="20" ry="20" height="40" stroke="none"/>
    </g>
    <g text-rendering="geometricPrecision" stroke-miterlimit="1.45" shape-rendering="geometricPrecision" transform="matrix(1,0,0,1,-573,98)" stroke-linecap="butt">
      <rect id="plan_generation" x="867.76" y="529.3154" clip-path="url(#clipPath2)" fill="none" width="133.6" rx="20" ry="20" height="40"/>
      <text x="921.7953" xml:space="preserve" y="546.4854" clip-path="url(#clipPath2)" font-family="sans-serif" stroke="none">Plan</text>
      <text x="883.0883" xml:space="preserve" y="560.4541" clip-path="url(#clipPath2)" font-family="sans-serif" stroke="none">Parameterization</text>
    </g>
    <g fill="white" text-rendering="geometricPrecision" shape-rendering="geometricPrecision" transform="matrix(1,0,0,1,-573,98)" stroke="white">
      <path d="M588.24 529.3154 L668.24 529.3154 L668.24 569.3154 L588.24 569.3154 Z" stroke="none" clip-path="url(#clipPath2)"/>
    </g>
    <g text-rendering="geometricPrecision" stroke-miterlimit="1.45" shape-rendering="geometricPrecision" transform="matrix(1,0,0,1,-573,98)" stroke-linecap="butt">
      <path id="achieved_by" fill="none" d="M588.24 529.3154 L668.24 529.3154 L668.24 569.3154 L588.24 569.3154 Z" clip-path="url(#clipPath2)"/>
      <text x="596.2156" xml:space="preserve" y="546.4854" clip-path="url(#clipPath2)" font-family="sans-serif" stroke="none">Actioncore</text>
      <text x="593.4148" xml:space="preserve" y="560.4541" clip-path="url(#clipPath2)" font-family="sans-serif" stroke="none">Refinement</text>
    </g>
    <g fill="white" text-rendering="geometricPrecision" shape-rendering="geometricPrecision" transform="matrix(1,0,0,1,-573,98)" stroke="white">
      <path d="M588.24 634.3154 L668.24 634.3154 L668.24 674.3154 L588.24 674.3154 Z" stroke="none" clip-path="url(#clipPath2)"/>
    </g>
    <g text-rendering="geometricPrecision" stroke-miterlimit="1.45" shape-rendering="geometricPrecision" transform="matrix(1,0,0,1,-573,98)" stroke-linecap="butt">
      <path id="roles_transformation" fill="none" d="M588.24 634.3154 L668.24 634.3154 L668.24 674.3154 L588.24 674.3154 Z" clip-path="url(#clipPath2)"/>
      <text x="594.238" xml:space="preserve" y="651.4854" clip-path="url(#clipPath2)" font-family="sans-serif" stroke="none">Action Role</text>
      <text x="593.4148" xml:space="preserve" y="665.4541" clip-path="url(#clipPath2)" font-family="sans-serif" stroke="none">Refinement</text>
    </g>
    <g fill="white" text-rendering="geometricPrecision" shape-rendering="geometricPrecision" transform="matrix(1,0,0,1,-573,98)" stroke="white">
      <path d="M728 106.8 L808 106.8 L808 146.8 L728 146.8 Z" stroke="none" clip-path="url(#clipPath2)"/>
    </g>
    <g text-rendering="geometricPrecision" stroke-miterlimit="1.45" shape-rendering="geometricPrecision" transform="matrix(1,0,0,1,-573,98)" stroke-linecap="butt">
      <path id="prop_extraction" fill="none" d="M728 106.8 L808 106.8 L808 146.8 L728 146.8 Z" clip-path="url(#clipPath2)"/>
      <text x="742.374" xml:space="preserve" y="123.9699" clip-path="url(#clipPath2)" font-family="sans-serif" stroke="none">Property</text>
      <text x="737.3701" xml:space="preserve" y="137.9387" clip-path="url(#clipPath2)" font-family="sans-serif" stroke="none">Extraction</text>
    </g>
    <g fill="white" text-rendering="geometricPrecision" shape-rendering="geometricPrecision" transform="matrix(1,0,0,1,-573,98)" stroke="white">
      <path d="M728 237.2 L808 237.2 L808 277.2 L728 277.2 Z" stroke="none" clip-path="url(#clipPath2)"/>
    </g>
    <g text-rendering="geometricPrecision" stroke-miterlimit="1.45" shape-rendering="geometricPrecision" transform="matrix(1,0,0,1,-573,98)" stroke-linecap="butt">
      <path id="coref_resolution" fill="none" d="M728 237.2 L808 237.2 L808 277.2 L728 277.2 Z" clip-path="url(#clipPath2)"/>
      <text x="731.2266" xml:space="preserve" y="254.3699" clip-path="url(#clipPath2)" font-family="sans-serif" stroke="none">Coreference</text>
      <text x="736.3799" xml:space="preserve" y="268.3387" clip-path="url(#clipPath2)" font-family="sans-serif" stroke="none">Resolution</text>
    </g>
    <g fill="white" text-rendering="geometricPrecision" shape-rendering="geometricPrecision" transform="matrix(1,0,0,1,-573,98)" stroke="white">
      <path d="M768 302.4 L837.76 344.16 L768 385.92 L698.24 344.16 Z" stroke="none" clip-path="url(#clipPath2)"/>
    </g>
    <g text-rendering="geometricPrecision" stroke-miterlimit="1.45" shape-rendering="geometricPrecision" transform="matrix(1,0,0,1,-573,98)" stroke-linecap="butt">
      <path id="missingroles" fill="none" d="M768 302.4 L837.76 344.16 L768 385.92 L698.24 344.16 Z" clip-path="url(#clipPath2)"/>
      <text x="724.21" xml:space="preserve" y="348.3143" clip-path="url(#clipPath2)" font-family="sans-serif" stroke="none">Roles Missing?</text>
    </g>
    <g fill="white" text-rendering="geometricPrecision" shape-rendering="geometricPrecision" transform="matrix(1,0,0,1,-573,98)" stroke="white">
      <path d="M728 411.12 L808 411.12 L808 451.12 L728 451.12 Z" stroke="none" clip-path="url(#clipPath2)"/>
    </g>
    <g text-rendering="geometricPrecision" stroke-miterlimit="1.45" shape-rendering="geometricPrecision" transform="matrix(1,0,0,1,-573,98)" stroke-linecap="butt">
      <path id="role_look_up" fill="none" d="M728 411.12 L808 411.12 L808 451.12 L728 451.12 Z" clip-path="url(#clipPath2)"/>
      <text x="730.5205" xml:space="preserve" y="428.2899" clip-path="url(#clipPath2)" font-family="sans-serif" stroke="none">Missing Role</text>
      <text x="739.6729" xml:space="preserve" y="442.2587" clip-path="url(#clipPath2)" font-family="sans-serif" stroke="none">Inference</text>
    </g>
    <g fill="white" text-rendering="geometricPrecision" shape-rendering="geometricPrecision" transform="matrix(1,0,0,1,-573,98)" stroke="white">
      <ellipse rx="3.5012" ry="3.4777" clip-path="url(#clipPath2)" cx="768" cy="479.7977" stroke="none"/>
    </g>
    <g text-rendering="geometricPrecision" stroke-miterlimit="1.45" shape-rendering="geometricPrecision" transform="matrix(1,0,0,1,-573,98)" stroke-linecap="butt">
      <ellipse rx="3.5012" fill="none" ry="3.4777" clip-path="url(#clipPath2)" cx="768" cy="479.7977"/>
    </g>
    <g text-rendering="geometricPrecision" stroke-miterlimit="1.45" shape-rendering="geometricPrecision" transform="matrix(1,0,0,1,-573,98)" stroke-linecap="butt">
      <path id="library" fill="white" d="M588.24 413.2218 C590.64 401.2896 665.84 401.2896 668.24 413.2218 L668.24 449.0182 C665.84 460.9504 590.64 460.9504 588.24 449.0182 Z" clip-path="url(#clipPath2)"/>
      <path fill="none" d="M668.24 413.2218 C665.84 425.1539 590.64 425.1539 588.24 413.2218" clip-path="url(#clipPath2)"/>
      <text x="626.3328" xml:space="preserve" y="428.2899" clip-path="url(#clipPath2)" font-family="sans-serif" stroke="none"> </text>
      <text x="607.2605" xml:space="preserve" y="442.2587" clip-path="url(#clipPath2)" font-family="sans-serif" stroke="none">Library</text>
    </g>
    <g text-rendering="geometricPrecision" stroke-miterlimit="1.45" shape-rendering="geometricPrecision" transform="matrix(1,0,0,1,-573,98)" stroke-linecap="butt">
      <path fill="none" d="M768 -42.3893 L768 -28.3695" clip-path="url(#clipPath2)"/>
      <path d="M768 -20.3695 L773 -32.3695 L768 -29.3695 L763 -32.3695 Z" clip-path="url(#clipPath2)" stroke="none"/>
      <path fill="none" d="M768 19.6107 L768 33.6305" clip-path="url(#clipPath2)"/>
      <path d="M768 41.6305 L773 29.6305 L768 32.6305 L763 29.6305 Z" clip-path="url(#clipPath2)" stroke="none"/>
      <path fill="none" d="M836.8442 548.5645 L859.8101 548.741" clip-path="url(#clipPath2)"/>
      <path d="M867.8098 548.8025 L855.8486 543.7103 L858.8101 548.7333 L855.7717 553.7101 Z" clip-path="url(#clipPath2)" stroke="none"/>
      <text x="842.5081" xml:space="preserve" y="522.842" clip-path="url(#clipPath2)" font-family="sans-serif" stroke="none">Yes</text>
      <path fill="none" d="M699.3142 548.6645 L676.2536 548.8757" clip-path="url(#clipPath2)"/>
      <path d="M668.254 548.949 L680.2993 553.8388 L677.2536 548.8665 L680.2076 543.8392 Z" clip-path="url(#clipPath2)" stroke="none"/>
      <text x="674.9216" xml:space="preserve" y="522.9662" clip-path="url(#clipPath2)" font-family="sans-serif" stroke="none">No</text>
      <path fill="none" d="M628.24 569.3362 L628.24 626.2739" clip-path="url(#clipPath2)"/>
      <path d="M628.24 634.2739 L633.24 622.2739 L628.24 625.2739 L623.24 622.2739 Z" clip-path="url(#clipPath2)" stroke="none"/>
      <path fill="none" d="M668.2405 654.3154 L767.68 654.3154 L767.8503 597.7327" clip-path="url(#clipPath2)"/>
      <path d="M767.8745 589.7327 L762.8383 601.7176 L767.8474 598.7327 L772.8383 601.7477 Z" clip-path="url(#clipPath2)" stroke="none"/>
      <path fill="none" d="M768 81.6248 L768 98.8153" clip-path="url(#clipPath2)"/>
      <path d="M768 106.8153 L773 94.8153 L768 97.8153 L763 94.8153 Z" clip-path="url(#clipPath2)" stroke="none"/>
      <path fill="none" d="M768.0983 146.8248 L768.1827 164.0154" clip-path="url(#clipPath2)"/>
      <path d="M768.2219 172.0153 L773.163 159.9909 L768.1778 163.0154 L763.1631 160.0399 Z" clip-path="url(#clipPath2)" stroke="none"/>
      <path fill="none" d="M768.2217 212.0248 L768.1373 229.2154" clip-path="url(#clipPath2)"/>
      <path d="M768.0981 237.2153 L773.1569 225.2399 L768.1422 228.2154 L763.157 225.1909 Z" clip-path="url(#clipPath2)" stroke="none"/>
      <path fill="none" d="M768 277.1991 L768 294.4075" clip-path="url(#clipPath2)"/>
      <path d="M768 302.4075 L773 290.4075 L768 293.4075 L763 290.4075 Z" clip-path="url(#clipPath2)" stroke="none"/>
      <path fill="none" d="M768 385.8991 L768 403.1151" clip-path="url(#clipPath2)"/>
      <path d="M768 411.1151 L773 399.1151 L768 402.1151 L763 399.1151 Z" clip-path="url(#clipPath2)" stroke="none"/>
      <text x="727.5176" xml:space="preserve" y="403.1743" clip-path="url(#clipPath2)" font-family="sans-serif" stroke="none">Yes</text>
      <path fill="none" d="M768 451.133 L768 468.32" clip-path="url(#clipPath2)"/>
      <path d="M768 476.32 L773 464.32 L768 467.32 L763 464.32 Z" clip-path="url(#clipPath2)" stroke="none"/>
      <path fill="none" d="M837.7274 344.16 L906.4408 344.16 L906.4408 479.7977 L779.5012 479.7977" clip-path="url(#clipPath2)"/>
      <path d="M771.5012 479.7977 L783.5012 484.7977 L780.5012 479.7977 L783.5012 474.7977 Z" clip-path="url(#clipPath2)" stroke="none"/>
      <text x="871.5208" xml:space="preserve" y="378.3143" clip-path="url(#clipPath2)" font-family="sans-serif" stroke="none">No</text>
      <path fill="none" d="M768 483.2754 L768 498.264" clip-path="url(#clipPath2)"/>
      <path d="M768 506.264 L773 494.264 L768 497.264 L763 494.264 Z" clip-path="url(#clipPath2)" stroke="none"/>
      <path fill="none" d="M727.976 431.12 L668.222 431.12" clip-path="url(#clipPath2)"/>
      <path fill="none" d="M628.24 529.318 L628.24 457.9231" clip-path="url(#clipPath2)"/>
    </g>
  </g>
</svg>
